<svg xmlns="http://www.w3.org/2000/svg" viewBox="0 0 512 512">
  <defs>
    <linearGradient id="grad1" x1="0%" y1="0%" x2="100%" y2="100%">
      <stop offset="0%" style="stop-color:#2a2a2a;stop-opacity:1" />
      <stop offset="100%" style="stop-color:#1a1a1a;stop-opacity:1" />
    </linearGradient>
  </defs>
  
  <!-- Background: Deep Charcoal for contrast -->
  <rect width="512" height="512" rx="120" fill="url(#grad1)" />
  
  <!-- Icon Group: Centered -->
  <g transform="translate(106, 106) scale(0.6)">
    <!-- Stylized Gear/Nut backing (Cream) -->
    <path d="M256 0c-141.4 0-256 114.6-256 256s114.6 256 256 256 256-114.6 256-256-114.6-256-256-256zm0 432c-97.2 0-176-78.8-176-176s78.8-176 176-176 176 78.8 176 176-78.8 176-176 176z" fill="#F3F1E7" opacity="0.1"/>
    
    <!-- Abstract F / Wrench Symbol -->
    <!-- Wrench Handle/Body (Terracotta Orange) -->
    <path d="M360 120c-30 0-58 12-78 32l-20 20-100 100c-12 12-20 30-20 48v80c0 22 18 40 40 40h80c18 0 36-8 48-20l100-100 20-20c20-20 32-48 32-78s-56-102-102-102z" fill="#F97316" />
    
    <!-- Cutout/Detail for Wrench Head (Dark to transparent) -->
    <circle cx="360" cy="180" r="30" fill="#1A1A1A" />
    
    <!-- Accent Line (Cream) -->
    <path d="M162 340l80-80" stroke="#F3F1E7" stroke-width="20" stroke-linecap="round" />
  </g>
</svg>
